#!OML:ASF \\sashay\E\basketball\basketball\Project 1\Capture day 1\Session 1\Subject.ASF
:FULLY-SPECIFIED
:DEGREES
181
root 2.44327 14.9504 1.6622 -164.402 -51.7938 180.086
lowerback 25.9354 -1.26678 -4.61723
upperback 8.80174 -3.97066 -0.73205
thorax -4.35803 -2.44711 3.01148
lowerneck -5.04577 8.39363 -12.3146
upperneck -20.8841 11.6712 6.82657
head -6.70562 5.69022 3.70377
rclavicle 2.38542e-015 8.66701e-014
rhumerus -14.4869 -30.5006 -30.6414
rradius 118.191
rwrist -18.1188
rhand -32.933 48.6271
rfingers 7.12502
rthumb -6.14953 18.7364
lclavicle 2.38542e-015 8.66701e-014
lhumerus -31.329 32.532 30.1683
lradius 104.846
lwrist 25.501
lhand -38.2919 26.3669
lfingers 7.12502
lthumb -11.3208 56.0414
rfemur -60.4928 -27.6521 44.2154
rtibia 65.0734
rfoot -15.616 0.183398
rtoes -52.1267
lfemur -16.268 24.4954 -28.3658
ltibia 82.0542
lfoot -6.67475 5.35048
ltoes -24.4715
182
root 1.99399 14.9237 1.6583 -164.479 -51.962 179.677
lowerback 26.5655 -1.03045 -4.29553
upperback 9.07682 -3.69743 -0.999159
thorax -4.42129 -2.3348 2.48643
lowerneck -5.97106 7.94414 -12.3335
upperneck -20.8965 11.128 7.03851
head -6.50943 5.41387 3.85955
rclavicle 5.88403e-014 2.46493e-014
rhumerus -14.3213 -31.0651 -32.1721
rradius 119.263
rwrist -17.3987
rhand -33.4587 49.4516
rfingers 7.12502
rthumb -6.65704 19.5762
lclavicle 5.88403e-014 2.46493e-014
lhumerus -29.9966 32.0705 32.377
lradius 104.558
lwrist 25.1674
lhand -38.5857 25.5742
lfingers 7.12502
lthumb -11.6041 55.2329
rfemur -58.0828 -27.7673 42.1568
rtibia 64.6778
rfoot -16.4969 0.458758
rtoes -48.9806
lfemur -19.1611 25.688 -27.4028
ltibia 85.9281
lfoot -8.06872 5.49212
ltoes -22.5384
183
root 1.54914 14.8796 1.65367 -164.416 -52.3302 179.23
lowerback 27.0436 -0.894108 -3.89245
upperback 9.27323 -3.50217 -1.2454
thorax -4.4881 -2.24979 1.95025
lowerneck -6.39532 7.46377 -12.8687
upperneck -21.2927 10.5686 7.58089
head -6.56539 5.13757 4.18287
rclavicle -1.7016e-013 -4.85035e-014
rhumerus -14.1743 -31.4815 -33.5935
rradius 120.118
rwrist -16.5612
rhand -33.9949 50.1331
rfingers 7.12502
rthumb -7.17468 20.2747
lclavicle -1.7016e-013 -4.85035e-014
lhumerus -28.7095 31.5174 34.3697
lradius 104.144
lwrist 24.8271
lhand -38.9026 24.9222
lfingers 7.12502
lthumb -11.9097 54.5634
rfemur -55.5613 -27.9136 39.9887
rtibia 64.4802
rfoot -15.4767 -9.9677
rtoes -55.2956
lfemur -22.3124 26.8026 -26.5518
ltibia 89.4186
lfoot -9.53082 5.67597
ltoes -22.351
184
root 1.12045 14.8104 1.65317 -163.644 -53.0319 178.03
lowerback 27.6097 -0.838368 -3.74388
upperback 9.29422 -3.45006 -1.46249
thorax -4.76134 -2.21773 1.63979
lowerneck -6.32252 7.07641 -13.3932
upperneck -21.6303 10.0935 7.96617
head -6.68103 4.9182 4.42749
rclavicle -1.35174e-014 7.95139e-015
rhumerus -14.0355 -31.6147 -34.5784
rradius 120.784
rwrist -15.998
rhand -34.6683 50.5397
rfingers 7.12502
rthumb -7.82466 20.7045
lclavicle -1.35174e-014 7.95139e-015
lhumerus -27.4901 30.7713 36.168
lradius 103.577
lwrist 24.3017
lhand -38.3531 25.0432
lfingers 7.12502
lthumb -11.3798 54.7144
rfemur -53.4255 -28.3398 37.4601
rtibia 64.6562
rfoot -9.87185 -18.7769
rtoes -55.294
lfemur -25.8851 27.473 -26.3386
ltibia 92.4417
lfoot -11.0585 5.99827
ltoes -22.3094
185
root 0.700585 14.7602 1.65462 -163.352 -53.8912 178.245
lowerback 27.5329 -0.884615 -2.76535
upperback 9.16326 -3.2102 -1.44593
thorax -4.93215 -2.06952 1.02885
lowerneck -6.44438 6.77142 -13.5865
upperneck -21.544 9.71397 8.0831
head -6.60303 4.75248 4.52668
rclavicle 5.56597e-015 4.77083e-014
rhumerus -13.9834 -31.748 -35.2265
rradius 121.316
rwrist -15.9269
rhand -35.4588 50.6906
rfingers 7.12502
rthumb -8.58754 20.8852
lclavicle 5.56597e-015 4.77083e-014
lhumerus -26.1272 29.9366 37.8488
lradius 102.922
lwrist 23.9046
lhand -37.628 25.5031
lfingers 7.12502
lthumb -10.6804 55.2117
rfemur -52.2781 -27.7401 35.7647
rtibia 64.9113
rfoot -9.38179 -20.7675
rtoes -54.7856
lfemur -31.1395 28.16 -25.7839
ltibia 95.2561
lfoot -12.1031 6.02205
ltoes -19.49
186
root 0.270487 14.7532 1.64695 -163.674 -54.3487 178.29
lowerback 28.0654 -0.678395 -2.0352
upperback 9.29664 -2.80955 -1.53464
thorax -5.08596 -1.87845 0.40861
lowerneck -6.81441 6.31307 -14.2006
upperneck -21.5038 9.21201 8.60517
head -6.52055 4.53318 4.84744
rclavicle -7.95139e-015 3.10104e-014
rhumerus -13.7789 -31.9039 -35.9334
rradius 121.799
rwrist -16.2821
rhand -35.9982 50.5009
rfingers 7.12502
rthumb -9.10807 20.7176
lclavicle -7.95139e-015 3.10104e-014
lhumerus -24.6339 29.2648 39.3672
lradius 102.27
lwrist 23.5996
lhand -37.0599 25.9646
lfingers 7.12502
lthumb -10.1324 55.7006
rfemur -49.1457 -26.1104 31.6777
rtibia 65.8944
rfoot -23.4382 -10.5192
rtoes -38.8056
lfemur -35.2016 29.1666 -25.1593
ltibia 96.9373
lfoot -12.8046 5.67895
ltoes -16.4021
187
root -0.161418 14.6506 1.64795 -163.893 -54.8026 178.216
lowerback 28.4275 -0.481222 -1.29243
upperback 9.46447 -2.40973 -1.66325
thorax -5.10763 -1.68951 -0.276021
lowerneck -6.77453 5.76024 -15.047
upperneck -21.9053 8.5609 9.25415
head -6.64036 4.2389 5.25345
rclavicle 4.77083e-015 4.69132e-014
rhumerus -13.5326 -31.9796 -36.5202
rradius 122.156
rwrist -16.8688
rhand -35.8074 49.9944
rfingers 7.12502
rthumb -8.92397 20.2031
lclavicle 4.77083e-015 4.69132e-014
lhumerus -23.0817 28.6249 40.635
lradius 101.545
lwrist 23.3448
lhand -36.4116 26.0737
lfingers 7.12502
lthumb -9.50693 55.8392
rfemur -47.1764 -25.9836 29.7596
rtibia 66.6014
rfoot -24.682 -14.3158
rtoes -42.9646
lfemur -39.5094 29.9766 -24.889
ltibia 98.4147
lfoot -13.7468 5.27114
ltoes -16.1629
188
root -0.600721 14.5598 1.64482 -164.543 -55.1019 178.549
lowerback 28.8625 -0.246556 -0.651892
upperback 9.67378 -1.9939 -1.71691
thorax -5.09549 -1.49938 -0.828701
lowerneck -6.71142 5.36321 -15.529
upperneck -22.4793 8.0253 9.40418
head -6.79693 3.99887 5.42831
rclavicle -2.74323e-014 5.1684e-015
rhumerus -12.799 -31.8323 -37.3457
rradius 122.248
rwrist -17.4935
rhand -35.5214 49.8614
rfingers 7.12502
rthumb -8.648 20.0585
lclavicle -2.74323e-014 5.1684e-015
lhumerus -21.8463 28.206 41.4938
lradius 101.025
lwrist 23.3954
lhand -35.9689 26.2975
lfingers 7.12502
lthumb -9.07979 56.082
rfemur -45.0493 -26.4277 28.1018
rtibia 67.1982
rfoot -26.1723 -16.5545
rtoes -45.0132
lfemur -43.6635 30.8775 -24.491
ltibia 99.0835
lfoot -14.419 4.63803
ltoes -17.9427
189
root -1.04214 14.4667 1.64497 -166.011 -55.1703 179.666
lowerback 29.3976 0.00653949 0.0620052
upperback 10.0538 -1.56585 -1.72511
thorax -4.92328 -1.31685 -1.38295
lowerneck -7.28436 5.07725 -15.6843
upperneck -22.8141 7.67569 9.41019
head -6.77313 3.83668 5.50182
rclavicle 7.27552e-014 4.29375e-014
rhumerus -11.146 -31.4976 -38.9223
rradius 122.05
rwrist -17.8105
rhand -35.9264 50.1697
rfingers 7.12502
rthumb -9.03879 20.3834
lclavicle 7.27552e-014 4.29375e-014
lhumerus -20.8172 28.145 41.8238
lradius 100.741
lwrist 23.7299
lhand -35.9788 26.8165
lfingers 7.12502
lthumb -9.0893 56.6006
rfemur -42.39 -26.5967 26.7282
rtibia 67.5466
rfoot -27.3862 -18.3701
rtoes -46.4511
lfemur -47.583 31.9617 -23.6774
ltibia 99.1453
lfoot -14.8728 3.78434
ltoes -19.1239
190
root -1.4802 14.4066 1.64171 -168.745 -55.404 182.729
lowerback 29.7339 0.0590635 1.6475
upperback 10.4214 -1.11674 -1.47713
thorax -4.65386 -1.1067 -2.17005
lowerneck -8.51672 4.80436 -15.7678
upperneck -22.6817 7.45699 9.62974
head -6.50597 3.72938 5.6351
rclavicle -2.18663e-014 -8.07066e-014
rhumerus -8.96744 -31.0195 -40.8273
rradius 121.615
rwrist -17.7814
rhand -36.5523 50.2885
rfingers 7.12502
rthumb -9.64272 20.5292
lclavicle -2.18663e-014 -8.07066e-014
lhumerus -19.6406 28.3744 41.8516
lradius 100.352
lwrist 23.9718
lhand -36.1547 27.1114
lfingers 7.12502
lthumb -9.25908 56.8881
rfemur -40.3535 -26.0781 26.6933
rtibia 67.1685
rfoot -26.9511 -20.353
rtoes -48.0491
lfemur -52.0412 32.9984 -21.9403
ltibia 98.439
lfoot -14.8392 2.7348
ltoes -19.9717
191
root -1.87269 14.3402 1.63269 -169.131 -56.371 184.527
lowerback 28.8391 0.226643 3.01254
upperback 9.91742 -0.367958 -1.00461
thorax -4.75106 -0.684249 -2.67927
lowerneck -6.74826 4.29412 -17.0009
upperneck -23.3662 6.6706 10.0441
head -6.97623 3.42249 6.00319
rclavicle -4.29375e-014 1.2921e-014
rhumerus -9.21235 -30.4824 -40.1403
rradius 121.174
rwrist -17.8833
rhand -36.8831 50.2678
rfingers 7.12502
rthumb -9.96187 20.5235
lclavicle -4.29375e-014 1.2921e-014
lhumerus -18.4177 27.1159 42.8194
lradius 99.9755
lwrist 23.6711
lhand -36.1751 27.1385
lfingers 7.12502
lthumb -9.27878 56.9143
rfemur -39.6714 -26.0209 26.5857
rtibia 66.771
rfoot -28.9786 -18.6731
rtoes -45.8064
lfemur -58.3452 32.767 -21.8521
ltibia 96.9291
lfoot -14.1245 1.95654
ltoes -21.2366
192
root -2.41905 14.2969 1.6109 -171.455 -55.4724 185.956
lowerback 29.3219 0.746577 3.69271
upperback 10.3353 0.369625 -1.03348
thorax -4.43202 -0.34876 -3.33961
lowerneck -6.80448 4.08686 -17.3994
upperneck -22.9891 6.48344 10.3973
head -6.83535 3.35783 6.19457
rclavicle -7.55382e-015 9.54166e-015
rhumerus -8.21118 -29.4806 -40.8599
rradius 120.533
rwrist -17.5545
rhand -37.3455 50.5329
rfingers 7.12502
rthumb -10.408 20.8105
lclavicle -7.55382e-015 9.54166e-015
lhumerus -17.946 27.1476 42.6454
lradius 99.7562
lwrist 22.9894
lhand -36.0918 27.098
lfingers 7.12502
lthumb -9.1984 56.8774
rfemur -34.6154 -25.698 23.9463
rtibia 65.3799
rfoot -30.4432 -17.8141
rtoes -46.789
lfemur -59.6208 33.9469 -20.6509
ltibia 94.12
lfoot -14.609 1.15277
ltoes -20.5792
193
root -2.93663 14.2625 1.58071 -171.817 -54.9924 186.186
lowerback 29.0311 1.23442 3.5065
upperback 10.3407 0.927667 -1.09042
thorax -4.24942 -0.075221 -3.46711
lowerneck -6.46403 4.00435 -17.5666
upperneck -22.8182 6.4047 10.7155
head -6.83317 3.32062 6.32651
rclavicle 3.18055e-015 4.57205e-014
rhumerus -7.70921 -28.2362 -41.2461
rradius 119.907
rwrist -17.0805
rhand -37.4211 50.8718
rfingers 7.12502
rthumb -10.4809 21.1531
lclavicle 3.18055e-015 4.57205e-014
lhumerus -17.7865 27.0278 42.1464
lradius 99.5946
lwrist 22.3487
lhand -35.9741 27.1246
lfingers 7.12502
lthumb -9.08482 56.909
rfemur -31.2758 -25.7634 21.5983
rtibia 63.9426
rfoot -28.4606 -21.5774
rtoes -51.8269
lfemur -61.9934 34.3662 -20.6169
ltibia 90.4891
lfoot -14.3435 0.475084
ltoes -19.3884
194
root -3.42982 14.2799 1.5369 -170.986 -55.0227 185.469
lowerback 28.5704 1.62388 2.55976
upperback 10.063 1.22489 -1.19367
thorax -4.35845 0.0760964 -3.12236
lowerneck -5.84123 4.04439 -18.1305
upperneck -22.599 6.55673 11.5253
head -6.92288 3.39664 6.68032
rclavicle 4.77083e-015 7.05686e-014
rhumerus -7.31824 -26.9516 -41.8286
rradius 119.04
rwrist -16.2104
rhand -37.0467 51.2461
rfingers 7.12502
rthumb -10.1197 21.5095
lclavicle 4.77083e-015 7.05686e-014
lhumerus -17.8009 26.8733 41.3325
lradius 99.3826
lwrist 21.6474
lhand -35.9141 27.0006
lfingers 7.12502
lthumb -9.02688 56.7874
rfemur -28.8091 -25.8833 18.9887
rtibia 62.3703
rfoot -29.7117 -18.9866
rtoes -51.2261
lfemur -64.2294 34.1311 -21.3216
ltibia 85.6892
lfoot -13.4793 -0.0400957
ltoes -20.1751
195
root -3.97124 14.3068 1.49062 -170.862 -54.6376 185.115
lowerback 28.2018 2.0883 1.78496
upperback 9.92373 1.62583 -1.37303
thorax -4.34076 0.272246 -2.99063
lowerneck -4.91327 4.19277 -18.9648
upperneck -22.5698 6.86228 12.6229
head -7.17478 3.54125 7.17854
rclavicle 2.16675e-014 5.66536e-014
rhumerus -7.07673 -25.7425 -42.5718
rradius 118.061
rwrist -15.1238
rhand -37.7554 51.872
rfingers 7.12502
rthumb -10.8033 22.1699
lclavicle 2.16675e-014 5.66536e-014
lhumerus -17.8924 26.8689 40.4214
lradius 99.2491
lwrist 20.7153
lhand -35.9665 26.5306
lfingers 7.12502
lthumb -9.07748 56.3152
rfemur -25.3596 -25.5632 16.0787
rtibia 60.3154
rfoot -31.3056 -14.3795
rtoes -49.2957
lfemur -65.1225 34.1277 -21.4386
ltibia 80.4807
lfoot -12.9875 -0.325037
ltoes -21.2895
